<svg width="1280" height="161" viewBox="0 0 1280 161" fill="none" xmlns="http://www.w3.org/2000/svg">
<path fill-rule="evenodd" clip-rule="evenodd" d="M0 34.3951L43 56.6226C85 78.85 171 123.305 256 128.167C341 132.335 427 96.9098 512 87.8799C597 78.85 683 96.9098 768 119.137C853 141.365 939 167.76 1024 159.425C1109 150.395 1195 105.94 1237 83.7123L1280 61.4848V7.99999H1237C1195 7.99999 1109 7.99999 1024 7.99999C939 7.99999 853 7.99999 768 7.99999C683 7.99999 597 7.99999 512 7.99999C427 7.99999 341 7.99999 256 7.99999C171 7.99999 85 7.99999 43 7.99999H0V34.3951Z" fill="#1EA5FF"/>
<path fill-rule="evenodd" clip-rule="evenodd" d="M0 21.9097L43 40.3599C85 58.8102 171 95.7106 256 99.7466C341 103.206 427 73.801 512 66.3056C597 58.8102 683 73.801 768 92.2512C853 110.701 939 132.611 1024 125.692C1109 118.197 1195 81.2964 1237 62.8461L1280 44.3959V-1.5987e-06H1237C1195 -1.5987e-06 1109 -1.5987e-06 1024 -1.5987e-06C939 -1.5987e-06 853 -1.5987e-06 768 -1.5987e-06C683 -1.5987e-06 597 -1.5987e-06 512 -1.5987e-06C427 -1.5987e-06 341 -1.5987e-06 256 -1.5987e-06C171 -1.5987e-06 85 -1.5987e-06 43 -1.5987e-06H0V21.9097Z" fill="#0099FF"/>
<path d="M118.65 46.495V41.77H130.69C130.69 44.1733 130.398 46.215 129.815 47.895C129.255 49.5517 128.298 51.01 126.945 52.27C124.845 54.23 122.103 55.21 118.72 55.21C115.01 55.21 112.023 54.055 109.76 51.745C107.52 49.505 106.4 46.6933 106.4 43.31C106.4 39.7633 107.567 36.8467 109.9 34.56C112.187 32.2733 115.208 31.13 118.965 31.13C121.438 31.13 123.538 31.655 125.265 32.705C127.085 33.825 128.473 35.4233 129.43 37.5L123.655 39.88C123.282 38.9467 122.722 38.165 121.975 37.535C121.042 36.765 119.957 36.38 118.72 36.38C117.133 36.38 115.803 36.9167 114.73 37.99C113.377 39.3433 112.7 41.1283 112.7 43.345C112.7 45.3983 113.318 47.0783 114.555 48.385C115.675 49.575 117.098 50.17 118.825 50.17C120.202 50.17 121.322 49.8083 122.185 49.085C122.955 48.455 123.433 47.5917 123.62 46.495H118.65ZM159.264 43.345C159.264 46.7983 158.039 49.7033 155.589 52.06C153.163 54.37 150.094 55.525 146.384 55.525C142.674 55.525 139.606 54.37 137.179 52.06C134.729 49.7033 133.504 46.7983 133.504 43.345C133.504 41.735 133.808 40.16 134.414 38.62C135.044 37.08 135.966 35.7383 137.179 34.595C139.606 32.285 142.674 31.13 146.384 31.13C150.094 31.13 153.163 32.285 155.589 34.595C156.803 35.7383 157.713 37.08 158.319 38.62C158.949 40.16 159.264 41.735 159.264 43.345ZM146.384 37.01C144.471 37.01 142.896 37.6283 141.659 38.865C140.423 40.0783 139.804 41.6067 139.804 43.45C139.804 45.1533 140.423 46.6 141.659 47.79C142.943 49.0267 144.518 49.645 146.384 49.645C148.298 49.645 149.861 49.0383 151.074 47.825C152.334 46.565 152.964 45.0717 152.964 43.345C152.964 41.5717 152.334 40.0783 151.074 38.865C149.768 37.6283 148.204 37.01 146.384 37.01ZM187.839 43.345C187.839 46.7983 186.614 49.7033 184.164 52.06C181.737 54.37 178.669 55.525 174.959 55.525C171.249 55.525 168.18 54.37 165.754 52.06C163.304 49.7033 162.079 46.7983 162.079 43.345C162.079 41.735 162.382 40.16 162.989 38.62C163.619 37.08 164.54 35.7383 165.754 34.595C168.18 32.285 171.249 31.13 174.959 31.13C178.669 31.13 181.737 32.285 184.164 34.595C185.377 35.7383 186.287 37.08 186.894 38.62C187.524 40.16 187.839 41.735 187.839 43.345ZM174.959 37.01C173.045 37.01 171.47 37.6283 170.234 38.865C168.997 40.0783 168.379 41.6067 168.379 43.45C168.379 45.1533 168.997 46.6 170.234 47.79C171.517 49.0267 173.092 49.645 174.959 49.645C176.872 49.645 178.435 49.0383 179.649 47.825C180.909 46.565 181.539 45.0717 181.539 43.345C181.539 41.5717 180.909 40.0783 179.649 38.865C178.342 37.6283 176.779 37.01 174.959 37.01ZM202.903 46.495V41.77H214.943C214.943 44.1733 214.651 46.215 214.068 47.895C213.508 49.5517 212.551 51.01 211.198 52.27C209.098 54.23 206.356 55.21 202.973 55.21C199.263 55.21 196.276 54.055 194.013 51.745C191.773 49.505 190.653 46.6933 190.653 43.31C190.653 39.7633 191.82 36.8467 194.153 34.56C196.44 32.2733 199.461 31.13 203.218 31.13C205.691 31.13 207.791 31.655 209.518 32.705C211.338 33.825 212.726 35.4233 213.683 37.5L207.908 39.88C207.535 38.9467 206.975 38.165 206.228 37.535C205.295 36.765 204.21 36.38 202.973 36.38C201.386 36.38 200.056 36.9167 198.983 37.99C197.63 39.3433 196.953 41.1283 196.953 43.345C196.953 45.3983 197.571 47.0783 198.808 48.385C199.928 49.575 201.351 50.17 203.078 50.17C204.455 50.17 205.575 49.8083 206.438 49.085C207.208 48.455 207.686 47.5917 207.873 46.495H202.903ZM218.807 31.655H224.862V49.855H232.142V55H218.807V31.655ZM248.513 31.655V36.8H241.303V40.685H248.128V45.83H241.303V49.855H248.513V55H235.248V31.655H248.513ZM259.491 52.9L262.081 48C263.761 49.5867 265.546 50.38 267.436 50.38C268.509 50.38 269.291 50.1117 269.781 49.575C270.177 49.1783 270.376 48.6883 270.376 48.105C270.376 47.545 270.154 47.0783 269.711 46.705C269.337 46.3783 268.334 45.97 266.701 45.48L265.126 44.99C263.562 44.5 262.442 43.87 261.766 43.1C260.879 42.1433 260.436 40.7667 260.436 38.97C260.436 36.6367 261.147 34.7583 262.571 33.335C264.041 31.865 266.036 31.13 268.556 31.13C270.959 31.13 273.362 31.76 275.766 33.02L273.351 37.745C272.021 36.695 270.691 36.17 269.361 36.17C268.521 36.17 267.856 36.4033 267.366 36.87C266.969 37.2667 266.771 37.6867 266.771 38.13C266.771 38.55 266.876 38.9 267.086 39.18C267.412 39.5767 268.089 39.9267 269.116 40.23L270.971 40.79C272.931 41.3967 274.342 42.1667 275.206 43.1C276.209 44.1733 276.711 45.5617 276.711 47.265C276.711 49.715 275.976 51.675 274.506 53.145C272.919 54.7317 270.621 55.525 267.611 55.525C265.954 55.525 264.426 55.2683 263.026 54.755C261.836 54.335 260.657 53.7167 259.491 52.9ZM293.801 31.655V36.8H286.591V40.685H293.416V45.83H286.591V49.855H293.801V55H280.536V31.655H293.801ZM313.34 55L311.905 51.08H303.435L301.86 55H295.455L304.415 31.655H311.03L319.815 55H313.34ZM305.115 46.46H310.295L307.67 38.9L305.115 46.46ZM322.509 31.655H331.959C334.432 31.655 336.334 32.3433 337.664 33.72C338.994 35.0733 339.659 36.8233 339.659 38.97C339.659 41.0233 339.04 42.645 337.804 43.835C336.94 44.6517 335.867 45.1883 334.584 45.445L341.899 55H334.374L328.564 46.04V55H322.509V31.655ZM328.564 36.345V42.12H329.719C331.025 42.12 332.005 41.805 332.659 41.175C333.172 40.6617 333.429 40.0083 333.429 39.215C333.429 38.3983 333.16 37.745 332.624 37.255C332.017 36.6483 331.049 36.345 329.719 36.345H328.564ZM361.217 47.195V54.37C359.094 55.14 357.344 55.525 355.967 55.525C352.327 55.525 349.317 54.3583 346.937 52.025C345.817 50.905 344.942 49.5983 344.312 48.105C343.705 46.5883 343.402 45.06 343.402 43.52C343.402 41.91 343.717 40.3467 344.347 38.83C345 37.3133 345.864 36.0067 346.937 34.91C349.317 32.4833 352.257 31.27 355.757 31.27C357.437 31.27 359.257 31.6667 361.217 32.46V39.705C359.84 38.0017 358.079 37.15 355.932 37.15C354.275 37.15 352.875 37.6633 351.732 38.69C350.379 39.95 349.702 41.5483 349.702 43.485C349.702 45.3283 350.332 46.845 351.592 48.035C352.735 49.1083 354.182 49.645 355.932 49.645C357.962 49.645 359.724 48.8283 361.217 47.195ZM371.117 31.655V40.37H379.867V31.655H385.957V55H379.867V45.55H371.117V55H365.062V31.655H371.117Z" fill="white"/>
</svg>
