<svg width="19" height="9" viewBox="0 0 19 9" fill="none" xmlns="http://www.w3.org/2000/svg">
<path d="M17.6812 0.192376L9.49916 7.031L1.31713 0.192376C1.17094 0.0699452 0.974696 0.00140356 0.770346 0.00140356C0.565996 0.00140356 0.369754 0.0699452 0.223568 0.192376C0.152785 0.251841 0.0965517 0.322818 0.0581626 0.40115C0.0197735 0.479483 0 0.563597 0 0.648565C0 0.733532 0.0197735 0.817646 0.0581626 0.895979C0.0965517 0.974311 0.152785 1.04529 0.223568 1.10475L8.92783 8.38132C9.08069 8.50908 9.2857 8.58058 9.49916 8.58058C9.71262 8.58058 9.91764 8.50908 10.0705 8.38132L18.7748 1.10616C18.846 1.04665 18.9027 0.975497 18.9414 0.896904C18.9801 0.818312 19 0.733871 19 0.648565C19 0.563259 18.9801 0.478817 18.9414 0.400225C18.9027 0.321632 18.846 0.250481 18.7748 0.190972C18.6286 0.068541 18.4323 0 18.228 0C18.0236 0 17.8274 0.068541 17.6812 0.190972V0.192376Z" fill="#303030"/>
</svg>
