<svg width="17" height="17" viewBox="0 0 17 17" fill="none" xmlns="http://www.w3.org/2000/svg">
<path d="M2.42283 3.917L6.98616 7.35837C7.89174 8.04129 9.10826 8.04129 10.0138 7.35837L14.5772 3.917M1.30426 11.126C0.898581 9.40155 0.898581 7.59846 1.30426 5.87396C1.8353 3.61653 3.53107 1.87111 5.68202 1.36802L6.04034 1.28421C7.66047 0.905264 9.33953 0.905265 10.9597 1.28421L11.318 1.36802C13.4689 1.87111 15.1647 3.61653 15.6957 5.87396C16.1014 7.59846 16.1014 9.40154 15.6957 11.126C15.1647 13.3835 13.4689 15.1289 11.318 15.632L10.9597 15.7158C9.33953 16.0947 7.66047 16.0947 6.04034 15.7158L5.68202 15.632C3.53106 15.1289 1.8353 13.3835 1.30426 11.126Z" stroke="#858585" stroke-width="1.5" stroke-linecap="round"/>
</svg>
