<svg width="25" height="18" viewBox="0 0 25 18" fill="none" xmlns="http://www.w3.org/2000/svg">
<path d="M24.4782 2.81178C24.3359 2.26731 24.0569 1.77078 23.6691 1.37189C23.2813 0.972995 22.7983 0.685735 22.2684 0.538854C20.3181 1.09338e-07 12.5 0 12.5 0C12.5 0 4.68192 -1.09338e-07 2.73158 0.535987C2.20151 0.682392 1.71826 0.969493 1.33037 1.36846C0.942486 1.76742 0.663614 2.26421 0.521763 2.80892C-1.06437e-07 4.81529 0 9 0 9C0 9 -1.06437e-07 13.1847 0.521763 15.1882C0.809152 16.2946 1.65737 17.1659 2.73158 17.4611C4.68192 18 12.5 18 12.5 18C12.5 18 20.3181 18 22.2684 17.4611C23.3454 17.1659 24.1908 16.2946 24.4782 15.1882C25 13.1847 25 9 25 9C25 9 25 4.81529 24.4782 2.81178ZM10.0167 12.8408V5.15924L16.49 8.97134L10.0167 12.8408Z" fill="#858585"/>
</svg>
