<svg width="665" height="617" viewBox="0 0 665 617" fill="none" xmlns="http://www.w3.org/2000/svg">
<path d="M314.177 616.454H9.02343C6.633 616.454 4.34025 615.505 2.64848 613.816C0.956714 612.128 0.00418639 609.836 0 607.446L0 9.02343C0 6.63027 0.95068 4.33512 2.6429 2.6429C4.33512 0.95068 6.63027 0 9.02343 0L314.177 0C316.567 0.00418639 318.858 0.956714 320.547 2.64848C322.236 4.34025 323.184 6.633 323.184 9.02343V607.446C323.18 609.834 322.23 612.122 320.541 613.811C318.853 615.499 316.564 616.449 314.177 616.454V616.454ZM9.02343 0.395071C6.73633 0.399249 4.5441 1.30965 2.92687 2.92687C1.30965 4.5441 0.399249 6.73633 0.395071 9.02343V607.446C0.399258 609.732 1.31016 611.922 2.92784 613.537C4.54552 615.152 6.73778 616.059 9.02343 616.059H314.177C316.461 616.059 318.651 615.151 320.267 613.536C321.882 611.921 322.789 609.73 322.789 607.446V9.02343C322.789 6.73778 321.882 4.54552 320.268 2.92784C318.653 1.31016 316.462 0.399258 314.177 0.395071H9.02343Z" fill="#EBEBEB"/>
<path d="M655.977 616.454H350.824C348.436 616.449 346.148 615.499 344.459 613.811C342.771 612.122 341.821 609.834 341.816 607.446V9.02343C341.816 6.633 342.765 4.34025 344.454 2.64848C346.143 0.956714 348.434 0.00418639 350.824 0L655.977 0C658.37 0 660.665 0.95068 662.358 2.6429C664.05 4.33512 665.001 6.63027 665.001 9.02343V607.446C664.996 609.836 664.044 612.128 662.352 613.816C660.66 615.505 658.368 616.454 655.977 616.454V616.454ZM350.824 0.395071C348.538 0.399258 346.348 1.31016 344.733 2.92784C343.118 4.54552 342.211 6.73778 342.211 9.02343V607.446C342.216 609.729 343.124 611.917 344.739 613.531C346.353 615.146 348.541 616.054 350.824 616.059H655.977C658.263 616.059 660.455 615.152 662.073 613.537C663.69 611.922 664.601 609.732 664.606 607.446V9.02343C664.601 6.73633 663.691 4.5441 662.074 2.92687C660.457 1.30965 658.264 0.399249 655.977 0.395071H350.824Z" fill="#EBEBEB"/>
<path d="M116.089 179.046L118.649 184.214L124.354 185.051L120.229 189.081L121.193 194.77L116.089 192.084L110.985 194.77L111.949 189.081L107.824 185.051L113.529 184.214L116.089 179.046Z" fill="#EBEBEB"/>
<path d="M627.546 422.773L630.106 427.957L635.811 428.779L631.687 432.808L632.65 438.497L627.546 435.811L622.442 438.497L623.406 432.808L619.281 428.779L624.986 427.957L627.546 422.773Z" fill="#F5F5F5"/>
<path d="M526.234 573.027L528.794 578.211L534.514 579.048L530.374 583.062L531.354 588.767L526.234 586.081L521.129 588.767L522.109 583.062L517.969 579.048L523.689 578.211L526.234 573.027Z" fill="#F5F5F5"/>
<path d="M294.487 87.2321L295.435 89.16L297.553 89.4603C297.673 89.4768 297.786 89.5268 297.879 89.6045C297.972 89.6823 298.042 89.7846 298.08 89.8999C298.118 90.0152 298.122 90.1388 298.094 90.2566C298.065 90.3745 298.003 90.4818 297.916 90.5665L296.336 92.0677L296.699 94.1695C296.72 94.2895 296.707 94.4129 296.66 94.5256C296.614 94.6383 296.537 94.7357 296.438 94.8066C296.339 94.8775 296.222 94.9191 296.101 94.9267C295.979 94.9342 295.858 94.9073 295.751 94.8491L293.855 93.8535L291.959 94.8491C291.853 94.9096 291.732 94.9383 291.61 94.9316C291.488 94.9249 291.371 94.8831 291.272 94.8113C291.174 94.7394 291.098 94.6406 291.054 94.5268C291.011 94.4129 291.001 94.2888 291.026 94.1695L291.39 92.0677L289.809 90.5665C289.722 90.4818 289.661 90.3745 289.632 90.2566C289.603 90.1388 289.608 90.0152 289.646 89.8999C289.684 89.7846 289.753 89.6823 289.846 89.6045C289.939 89.5268 290.053 89.4768 290.173 89.4603L292.29 89.16L293.239 87.2321C293.276 87.0957 293.358 86.9755 293.471 86.8898C293.584 86.8042 293.721 86.7578 293.863 86.7578C294.004 86.7578 294.142 86.8042 294.255 86.8898C294.367 86.9755 294.449 87.0957 294.487 87.2321V87.2321Z" fill="#EBEBEB"/>
<path d="M33.472 548.439L34.4202 550.367L36.5378 550.683C36.6581 550.696 36.7722 550.743 36.8665 550.819C36.9607 550.895 37.0312 550.996 37.0695 551.111C37.1077 551.226 37.1122 551.349 37.0824 551.467C37.0526 551.584 36.9897 551.69 36.9013 551.773L35.321 553.274L35.6844 555.392C35.7031 555.51 35.6889 555.63 35.6433 555.741C35.5977 555.851 35.5225 555.947 35.4261 556.017C35.3297 556.087 35.2157 556.129 35.0968 556.139C34.9778 556.149 34.8585 556.125 34.7521 556.071L32.8557 555.076L30.9594 556.071C30.8519 556.124 30.7324 556.146 30.6133 556.136C30.4943 556.125 30.3803 556.083 30.2832 556.014C30.1861 555.944 30.1096 555.85 30.0617 555.74C30.0138 555.631 29.9964 555.51 30.0112 555.392L30.3747 553.274L28.7944 551.773C28.7059 551.69 28.643 551.584 28.6132 551.467C28.5834 551.349 28.5879 551.226 28.6262 551.111C28.6645 550.996 28.7349 550.895 28.8292 550.819C28.9234 550.743 29.0375 550.696 29.1579 550.683L31.2754 550.367L32.2236 548.439C32.2616 548.302 32.3431 548.182 32.4559 548.096C32.5686 548.011 32.7063 547.964 32.8478 547.964C32.9894 547.964 33.1271 548.011 33.2398 548.096C33.3525 548.182 33.4341 548.302 33.472 548.439V548.439Z" fill="#F5F5F5"/>
<path d="M76.1042 66.9255L77.0523 68.8377L79.1699 69.1537C79.2901 69.1703 79.4033 69.2203 79.4965 69.298C79.5897 69.3757 79.6592 69.4781 79.6971 69.5934C79.7349 69.7086 79.7397 69.8323 79.7107 69.9501C79.6818 70.068 79.6204 70.1753 79.5334 70.26L77.9531 71.7454L78.3166 73.863C78.3373 73.983 78.3238 74.1064 78.2777 74.2191C78.2315 74.3318 78.1545 74.4291 78.0556 74.5001C77.9566 74.571 77.8396 74.6126 77.7181 74.6201C77.5965 74.6276 77.4753 74.6007 77.3684 74.5425L75.472 73.5469L73.5757 74.5425C73.4692 74.5964 73.3499 74.6198 73.231 74.6102C73.1121 74.6005 72.9981 74.5582 72.9017 74.488C72.8052 74.4177 72.7301 74.3221 72.6845 74.2119C72.6389 74.1016 72.6247 73.9809 72.6433 73.863L73.0068 71.7454L71.4265 70.26C71.3395 70.1753 71.2781 70.068 71.2492 69.9501C71.2202 69.8323 71.225 69.7086 71.2628 69.5934C71.3007 69.4781 71.3702 69.3757 71.4634 69.298C71.5566 69.2203 71.6698 69.1703 71.79 69.1537L73.9076 68.8377L74.8557 66.9255C74.8794 66.777 74.9553 66.6419 75.0697 66.5443C75.1841 66.4467 75.3296 66.3931 75.4799 66.3931C75.6303 66.3931 75.7758 66.4467 75.8902 66.5443C76.0046 66.6419 76.0805 66.777 76.1042 66.9255Z" fill="#EBEBEB"/>
<path d="M73.5425 447.806C73.53 448.218 73.3963 448.618 73.1579 448.956C72.9196 449.293 72.5871 449.552 72.2022 449.702C71.8172 449.851 71.3967 449.884 70.9933 449.796C70.5898 449.708 70.2212 449.503 69.9336 449.206C69.6459 448.91 69.452 448.536 69.3758 448.13C69.2997 447.724 69.3449 447.305 69.5057 446.924C69.6664 446.544 69.9357 446.219 70.2798 445.991C70.624 445.763 71.0277 445.641 71.4407 445.641C71.7221 445.64 72.0007 445.697 72.2599 445.806C72.5191 445.916 72.7536 446.077 72.9497 446.278C73.1457 446.48 73.2992 446.72 73.401 446.982C73.5028 447.244 73.5509 447.524 73.5425 447.806V447.806Z" fill="#EBEBEB"/>
<path d="M373.079 184.799C373.079 185.214 372.955 185.621 372.724 185.966C372.493 186.312 372.165 186.581 371.781 186.74C371.397 186.899 370.974 186.941 370.567 186.86C370.159 186.779 369.785 186.579 369.491 186.285C369.197 185.991 368.996 185.616 368.915 185.209C368.834 184.801 368.876 184.378 369.035 183.994C369.194 183.61 369.463 183.282 369.809 183.051C370.155 182.82 370.561 182.697 370.977 182.697C371.533 182.701 372.065 182.924 372.458 183.317C372.852 183.71 373.074 184.242 373.079 184.799V184.799Z" fill="#EBEBEB"/>
<path d="M264.079 68.6639C264.079 69.0802 263.955 69.4872 263.723 69.8332C263.492 70.1791 263.162 70.4485 262.777 70.6071C262.392 70.7657 261.969 70.8064 261.561 70.724C261.153 70.6416 260.778 70.4399 260.485 70.1444C260.192 69.8488 259.993 69.4729 259.913 69.0641C259.834 68.6554 259.878 68.2323 260.04 67.8485C260.201 67.4648 260.473 67.1376 260.821 66.9086C261.168 66.6795 261.576 66.5589 261.993 66.5621C262.547 66.5662 263.078 66.7895 263.469 67.1832C263.859 67.5769 264.079 68.1092 264.079 68.6639V68.6639Z" fill="#F5F5F5"/>
<path d="M267.418 580.894C273.661 579.42 277.528 573.165 276.054 566.921C274.581 560.678 268.325 556.811 262.082 558.285C255.839 559.759 251.972 566.014 253.445 572.258C254.919 578.501 261.175 582.368 267.418 580.894Z" fill="#F0F0F0"/>
<path d="M260.748 562.803C258.369 562.798 256.049 563.551 254.126 564.952C253.144 567.205 252.903 569.712 253.438 572.111C253.973 574.51 255.255 576.677 257.101 578.299C258.947 579.922 261.261 580.916 263.708 581.139C266.156 581.362 268.611 580.801 270.719 579.538C270.719 579.538 270.719 579.538 270.719 579.538C271.657 577.812 272.129 575.871 272.089 573.907C272.05 571.942 271.5 570.022 270.495 568.334C269.489 566.646 268.062 565.249 266.353 564.279C264.644 563.31 262.713 562.801 260.748 562.803V562.803Z" fill="#E6E6E6"/>
<path d="M170.813 367.717H74.6367V324.306L170.813 209.988H216.815V326.771H240.662V367.717H216.815V403.226H170.813V367.717ZM170.813 326.771V266.973L119.991 326.771H170.813Z" fill="#407BFF"/>
<path d="M257.126 307.46C257.126 271.335 263.627 246.05 276.627 231.606C289.628 217.163 309.434 209.946 336.046 209.957C348.846 209.957 359.344 211.537 367.541 214.697C375.011 217.395 381.851 221.589 387.642 227.024C392.518 231.674 396.648 237.046 399.889 242.953C403.089 249.134 405.504 255.69 407.08 262.469C410.683 276.974 412.488 291.867 412.453 306.812C412.453 341.284 406.621 366.51 394.959 382.492C383.296 398.474 363.206 406.465 334.687 406.465C318.705 406.465 305.789 403.921 295.938 398.832C286.004 393.651 277.634 385.91 271.697 376.408C267.114 369.402 263.553 359.831 261.014 347.694C258.33 334.453 257.028 320.97 257.126 307.46V307.46ZM309.481 307.587C309.481 331.818 311.62 348.342 315.897 357.16C320.174 365.978 326.374 370.403 334.497 370.435C337.077 370.466 339.638 369.985 342.03 369.02C344.423 368.054 346.6 366.623 348.435 364.809C352.354 361.048 355.246 355.106 357.111 346.983C358.976 338.86 359.903 326.218 359.892 309.056C359.892 283.772 357.759 266.815 353.492 258.187C349.225 249.559 342.809 245.218 334.244 245.165C325.5 245.165 319.179 249.59 315.281 258.44C311.383 267.289 309.45 283.672 309.481 307.587V307.587Z" fill="#407BFF"/>
<path d="M524.891 367.717H428.715V324.306L524.891 209.988H570.893V326.771H594.755V367.717H570.893V403.226H524.891V367.717ZM524.891 326.771V266.973L474.085 326.771H524.891Z" fill="#407BFF"/>
<g opacity="0.3">
<path d="M255 143.285C255 143.869 254.827 144.441 254.502 144.927C254.177 145.412 253.716 145.791 253.176 146.015C252.636 146.239 252.042 146.297 251.468 146.183C250.895 146.069 250.369 145.788 249.955 145.374C249.542 144.961 249.261 144.434 249.147 143.861C249.033 143.288 249.091 142.694 249.315 142.154C249.538 141.614 249.917 141.152 250.403 140.828C250.889 140.503 251.461 140.33 252.045 140.33C252.829 140.33 253.58 140.641 254.135 141.195C254.689 141.749 255 142.501 255 143.285V143.285Z" fill="#407BFF"/>
<path d="M52.7383 256.797C53.8904 256.797 54.8243 255.863 54.8243 254.711C54.8243 253.559 53.8904 252.625 52.7383 252.625C51.5863 252.625 50.6523 253.559 50.6523 254.711C50.6523 255.863 51.5863 256.797 52.7383 256.797Z" fill="#407BFF"/>
<path d="M397.381 561.428C399.031 561.428 400.368 560.091 400.368 558.441C400.368 556.792 399.031 555.455 397.381 555.455C395.732 555.455 394.395 556.792 394.395 558.441C394.395 560.091 395.732 561.428 397.381 561.428Z" fill="#407BFF"/>
<path d="M469.191 439.904C470.344 439.904 471.277 438.97 471.277 437.818C471.277 436.666 470.344 435.732 469.191 435.732C468.039 435.732 467.105 436.666 467.105 437.818C467.105 438.97 468.039 439.904 469.191 439.904Z" fill="#407BFF"/>
<path d="M607.75 64.2707C607.705 64.7946 607.464 65.2824 607.077 65.6378C606.689 65.9932 606.182 66.1904 605.656 66.1904C605.131 66.1904 604.624 65.9932 604.236 65.6378C603.848 65.2824 603.608 64.7946 603.563 64.2707C603.537 63.9804 603.573 63.6881 603.667 63.4122C603.76 63.1364 603.91 62.883 604.107 62.6683C604.304 62.4535 604.544 62.282 604.81 62.1647C605.077 62.0474 605.365 61.9868 605.656 61.9868C605.948 61.9868 606.236 62.0474 606.503 62.1647C606.769 62.282 607.009 62.4535 607.206 62.6683C607.403 62.883 607.553 63.1364 607.646 63.4122C607.74 63.6881 607.776 63.9804 607.75 64.2707V64.2707Z" fill="#407BFF"/>
<path d="M210.434 22.1241C210.437 22.5411 210.316 22.9497 210.086 23.2977C209.857 23.6458 209.529 23.9176 209.144 24.0786C208.759 24.2397 208.335 24.2826 207.926 24.202C207.517 24.1214 207.141 23.9209 206.846 23.626C206.551 23.3312 206.351 22.9552 206.27 22.546C206.189 22.1369 206.232 21.713 206.393 21.3283C206.555 20.9436 206.826 20.6155 207.174 20.3858C207.522 20.156 207.931 20.035 208.348 20.0381C208.901 20.0381 209.432 20.2579 209.823 20.6491C210.214 21.0403 210.434 21.5709 210.434 22.1241V22.1241Z" fill="#407BFF"/>
<path d="M376.27 131.654C377.422 131.654 378.356 130.72 378.356 129.568C378.356 128.416 377.422 127.482 376.27 127.482C375.118 127.482 374.184 128.416 374.184 129.568C374.184 130.72 375.118 131.654 376.27 131.654Z" fill="#407BFF"/>
</g>
<path d="M160.624 131.67C179.746 131.67 195.248 116.168 195.248 97.0454C195.248 77.9231 179.746 62.4214 160.624 62.4214C141.502 62.4214 126 77.9231 126 97.0454C126 116.168 141.502 131.67 160.624 131.67Z" fill="#407BFF"/>
<path opacity="0.7" d="M160.624 131.67C179.746 131.67 195.248 116.168 195.248 97.0454C195.248 77.9231 179.746 62.4214 160.624 62.4214C141.502 62.4214 126 77.9231 126 97.0454C126 116.168 141.502 131.67 160.624 131.67Z" fill="white"/>
<path opacity="0.2" d="M148.691 70.9239C143.997 70.9167 139.351 71.8685 135.038 73.721C129.721 79.5757 126.569 87.0732 126.103 94.9677C125.638 102.862 127.887 110.678 132.478 117.117C137.069 123.556 143.726 128.231 151.341 130.363C158.956 132.496 167.072 131.959 174.339 128.841V128.841C178.847 123.874 181.815 117.705 182.884 111.083C183.952 104.461 183.076 97.6708 180.36 91.5377C177.644 85.4045 173.205 80.1918 167.584 76.5325C161.962 72.8732 155.399 70.9248 148.691 70.9239V70.9239Z" fill="#407BFF"/>
<path opacity="0.2" d="M145.247 80.0737C145.247 80.6988 145.062 81.3098 144.714 81.8296C144.367 82.3493 143.873 82.7544 143.296 82.9936C142.718 83.2329 142.083 83.2955 141.47 83.1735C140.857 83.0515 140.294 82.7505 139.851 82.3085C139.409 81.8665 139.108 81.3033 138.987 80.6903C138.865 80.0772 138.927 79.4417 139.166 78.8642C139.406 78.2866 139.811 77.793 140.33 77.4457C140.85 77.0985 141.461 76.9131 142.086 76.9131C142.925 76.9131 143.728 77.2461 144.321 77.8388C144.914 78.4315 145.247 79.2354 145.247 80.0737Z" fill="#407BFF"/>
<path opacity="0.2" d="M182.481 76.913C182.481 77.5381 182.296 78.1492 181.949 78.6689C181.601 79.1887 181.108 79.5938 180.53 79.833C179.953 80.0722 179.317 80.1348 178.704 80.0129C178.091 79.8909 177.528 79.5899 177.086 79.1479C176.644 78.7059 176.343 78.1427 176.221 77.5296C176.099 76.9165 176.162 76.281 176.401 75.7035C176.64 75.126 177.045 74.6324 177.565 74.2851C178.085 73.9378 178.696 73.7524 179.321 73.7524C180.159 73.7524 180.963 74.0854 181.556 74.6782C182.148 75.2709 182.481 76.0748 182.481 76.913Z" fill="#407BFF"/>
<path opacity="0.2" d="M176.144 99.5584C176.144 100.584 175.84 101.587 175.269 102.44C174.699 103.292 173.889 103.957 172.941 104.349C171.993 104.74 170.95 104.842 169.944 104.641C168.938 104.44 168.014 103.944 167.29 103.218C166.566 102.491 166.073 101.566 165.875 100.56C165.677 99.5533 165.782 98.5107 166.176 97.5638C166.571 96.617 167.238 95.8085 168.092 95.2409C168.947 94.6732 169.951 94.3719 170.976 94.375C171.656 94.375 172.33 94.5092 172.958 94.7699C173.586 95.0306 174.156 95.4126 174.636 95.8941C175.116 96.3757 175.496 96.9472 175.755 97.576C176.014 98.2048 176.146 98.8784 176.144 99.5584V99.5584Z" fill="#407BFF"/>
<path opacity="0.2" d="M159.687 114.239C159.687 115.608 159.281 116.946 158.521 118.084C157.76 119.223 156.679 120.11 155.414 120.634C154.149 121.158 152.758 121.295 151.415 121.028C150.072 120.761 148.839 120.101 147.871 119.133C146.903 118.165 146.244 116.932 145.977 115.589C145.71 114.247 145.847 112.855 146.371 111.59C146.895 110.325 147.782 109.244 148.92 108.484C150.058 107.723 151.396 107.317 152.765 107.317C154.601 107.317 156.362 108.047 157.66 109.345C158.958 110.643 159.687 112.403 159.687 114.239V114.239Z" fill="#407BFF"/>
<path d="M570.981 514.707C574.836 498.372 564.72 482.005 548.385 478.15C532.051 474.295 515.684 484.411 511.828 500.745C507.973 517.08 518.089 533.447 534.424 537.302C550.758 541.158 567.126 531.041 570.981 514.707Z" fill="#407BFF"/>
<path opacity="0.3" d="M570.981 514.707C574.836 498.372 564.72 482.005 548.385 478.15C532.051 474.295 515.684 484.411 511.828 500.745C507.973 517.08 518.089 533.447 534.424 537.302C550.758 541.158 567.126 531.041 570.981 514.707Z" fill="white"/>
<path opacity="0.4" d="M560.595 484.184C553.861 482.164 546.636 482.542 540.149 485.252C533.663 487.963 528.317 492.838 525.022 499.048C521.726 505.258 520.686 512.418 522.078 519.309C523.47 526.2 527.208 532.395 532.656 536.839C539.389 538.858 546.615 538.481 553.101 535.77C559.588 533.06 564.934 528.184 568.229 521.974C571.524 515.764 572.564 508.604 571.172 501.713C569.78 494.823 566.042 488.628 560.595 484.184Z" fill="#407BFF"/>
<path d="M512.393 516.754C479.934 532.019 504.144 543.777 549.862 527.357C592.182 512.139 608.332 492.955 570.484 498.912C572.428 506.972 519.425 527.626 512.393 516.754Z" fill="#407BFF"/>
<path opacity="0.2" d="M560.211 209.988C517.717 238.702 462.707 276.566 447.521 367.717H444.281C459.057 277.64 512.06 238.813 554.569 209.988H560.211Z" fill="black"/>
<path d="M340.428 495.119C313.563 495.119 287.014 483.014 274.056 463.229C266.076 450.998 256.799 425.381 284.407 391.2L286.872 393.191C267.34 417.369 263.721 441.627 276.695 461.491C292.498 485.685 329.793 497.837 361.604 489.193C394.237 480.407 414.038 451.962 415.934 411.396C422.476 272.647 496.197 229.9 550.021 198.689C583.46 179.299 607.623 165.282 602.313 135.731C602.14 134.02 601.609 132.364 600.754 130.872C599.899 129.38 598.74 128.085 597.351 127.071C590.477 122.535 577.044 125.664 561.478 129.299C530.979 136.394 489.196 146.145 464.307 103.793L467.025 102.213C490.729 142.542 529.572 133.503 560.767 126.233C577.028 122.441 591.077 119.169 599.089 124.448C602.471 126.676 604.557 130.184 605.41 135.193C611.115 166.926 584.867 182.16 551.586 201.439C498.393 232.286 425.542 274.527 419.079 411.617C417.198 453.542 396.481 482.999 362.473 492.243C355.285 494.177 347.871 495.144 340.428 495.119V495.119Z" fill="#407BFF"/>
<path opacity="0.2" d="M340.428 495.119C313.563 495.119 287.014 483.014 274.056 463.229C266.076 450.998 256.799 425.381 284.407 391.2L286.872 393.191C267.34 417.369 263.721 441.627 276.695 461.491C292.498 485.685 329.793 497.837 361.604 489.193C394.237 480.407 414.038 451.962 415.934 411.396C422.476 272.647 496.197 229.9 550.021 198.689C583.46 179.299 607.623 165.282 602.313 135.731C602.14 134.02 601.609 132.364 600.754 130.872C599.899 129.38 598.74 128.085 597.351 127.071C590.477 122.535 577.044 125.664 561.478 129.299C530.979 136.394 489.196 146.145 464.307 103.793L467.025 102.213C490.729 142.542 529.572 133.503 560.767 126.233C577.028 122.441 591.077 119.169 599.089 124.448C602.471 126.676 604.557 130.184 605.41 135.193C611.115 166.926 584.867 182.16 551.586 201.439C498.393 232.286 425.542 274.527 419.079 411.617C417.198 453.542 396.481 482.999 362.473 492.243C355.285 494.177 347.871 495.144 340.428 495.119V495.119Z" fill="white"/>
<path d="M431.672 66.3721C438.959 66.4132 446.198 67.5479 453.148 69.7381C453.148 69.7381 470.531 99.4 472.585 106.195C471.859 112.896 460.544 123.879 460.544 123.879L431.672 66.3721Z" fill="#407BFF"/>
<path opacity="0.3" d="M431.672 66.3721C438.959 66.4132 446.198 67.5479 453.148 69.7381C453.148 69.7381 470.531 99.4 472.585 106.195C471.859 112.896 460.544 123.879 460.544 123.879L431.672 66.3721Z" fill="white"/>
<path d="M483.177 210.462C476.479 202.274 470.374 193.619 464.909 184.561C463.581 182.286 462.317 179.947 461.132 177.592C460.452 176.249 459.788 174.89 459.156 173.531C458.329 172.215 457.691 170.789 457.26 169.296C455.364 149.274 462.222 134.53 455.68 118.458L429.652 128.619C429.652 128.619 431.865 157.27 436.922 174.448C440.082 185.067 447.146 194.28 453.989 202.782C456.138 205.453 458.192 208.171 460.31 210.842C462.427 213.512 464.592 215.693 466.631 218.206C469.697 222.014 470.724 225.649 468.385 230.153C468.259 230.39 468.132 230.627 467.99 230.864C467.326 232.033 470.439 233.361 472.399 230.864C475.56 226.787 475.117 227.039 477.867 223.563C479.526 221.445 481.454 219.17 483.113 217.242C483.904 216.292 484.342 215.099 484.354 213.863C484.365 212.628 483.949 211.426 483.177 210.462V210.462Z" fill="#407BFF"/>
<path opacity="0.7" d="M483.177 210.462C476.479 202.274 470.374 193.619 464.909 184.561C463.581 182.286 462.317 179.947 461.132 177.592C460.452 176.249 459.788 174.89 459.156 173.531C458.329 172.215 457.691 170.789 457.26 169.296C455.364 149.274 462.222 134.53 455.68 118.458L429.652 128.619C429.652 128.619 431.865 157.27 436.922 174.448C440.082 185.067 447.146 194.28 453.989 202.782C456.138 205.453 458.192 208.171 460.31 210.842C462.427 213.512 464.592 215.693 466.631 218.206C469.697 222.014 470.724 225.649 468.385 230.153C468.259 230.39 468.132 230.627 467.99 230.864C467.326 232.033 470.439 233.361 472.399 230.864C475.56 226.787 475.117 227.039 477.867 223.563C479.526 221.445 481.454 219.17 483.113 217.242C483.904 216.292 484.342 215.099 484.354 213.863C484.365 212.628 483.949 211.426 483.177 210.462V210.462Z" fill="white"/>
<path opacity="0.3" d="M476.807 202.276C472.669 206.707 468.076 210.69 463.105 214.16L465.144 216.467C470.112 213.104 474.627 209.115 478.576 204.599C477.976 203.857 477.391 203.003 476.807 202.276Z" fill="#407BFF"/>
<path opacity="0.3" d="M483.159 210.462C483.097 210.393 483.039 210.319 482.986 210.241C481.75 211.624 481.039 213.397 480.979 215.251C480.858 216.52 481.065 217.798 481.579 218.964L483.08 217.179C483.863 216.239 484.298 215.058 484.312 213.835C484.327 212.612 483.92 211.421 483.159 210.462Z" fill="#407BFF"/>
<path d="M425.498 85.3354C422.656 89.5531 419.265 93.374 415.416 96.6977C413.283 98.5408 410.944 100.132 408.447 101.439C407.126 102.112 405.758 102.688 404.354 103.161L403.295 103.493L402.947 103.604L402.189 103.809C401.737 103.917 401.277 103.991 400.814 104.03C399.48 104.129 398.139 104.001 396.847 103.651C395.216 103.2 393.653 102.53 392.201 101.66C391.015 100.966 389.865 100.212 388.756 99.4C386.786 97.9303 384.902 96.3474 383.115 94.6591C379.658 91.3839 376.486 87.8207 373.633 84.008C373.084 83.2652 372.811 82.354 372.861 81.4315C372.912 80.5091 373.283 79.6332 373.911 78.9552C374.538 78.2771 375.383 77.8394 376.299 77.7174C377.214 77.5955 378.144 77.7971 378.927 78.2874H379.038C382.814 80.5946 386.591 83.1389 390.337 85.3354C392.186 86.4258 394.003 87.532 395.789 88.3854C396.599 88.8072 397.432 89.1818 398.285 89.5074C398.823 89.7528 399.402 89.8974 399.992 89.9341C400.071 89.9341 399.992 89.8235 399.392 89.8393C399.213 89.8284 399.033 89.8284 398.854 89.8393H398.507C398.396 89.8393 398.507 89.8393 398.507 89.8393L399.044 89.5706C399.74 89.1904 400.415 88.7737 401.067 88.3222C402.482 87.3207 403.809 86.1999 405.033 84.972C407.786 82.0713 410.371 79.0164 412.777 75.8221C414.038 74.1352 415.918 73.0185 418.003 72.7177C420.088 72.4169 422.207 72.9566 423.894 74.2181C425.581 75.4797 426.698 77.3597 426.998 79.4446C427.299 81.5295 426.76 83.6485 425.498 85.3354V85.3354Z" fill="#407BFF"/>
<path opacity="0.7" d="M425.498 85.3354C422.656 89.5531 419.265 93.374 415.416 96.6977C413.283 98.5408 410.944 100.132 408.447 101.439C407.126 102.112 405.758 102.688 404.354 103.161L403.295 103.493L402.947 103.604L402.189 103.809C401.737 103.917 401.277 103.991 400.814 104.03C399.48 104.129 398.139 104.001 396.847 103.651C395.216 103.2 393.653 102.53 392.201 101.66C391.015 100.966 389.865 100.212 388.756 99.4C386.786 97.9303 384.902 96.3474 383.115 94.6591C379.658 91.3839 376.486 87.8207 373.633 84.008C373.084 83.2652 372.811 82.354 372.861 81.4315C372.912 80.5091 373.283 79.6332 373.911 78.9552C374.538 78.2771 375.383 77.8394 376.299 77.7174C377.214 77.5955 378.144 77.7971 378.927 78.2874H379.038C382.814 80.5946 386.591 83.1389 390.337 85.3354C392.186 86.4258 394.003 87.532 395.789 88.3854C396.599 88.8072 397.432 89.1818 398.285 89.5074C398.823 89.7528 399.402 89.8974 399.992 89.9341C400.071 89.9341 399.992 89.8235 399.392 89.8393C399.213 89.8284 399.033 89.8284 398.854 89.8393H398.507C398.396 89.8393 398.507 89.8393 398.507 89.8393L399.044 89.5706C399.74 89.1904 400.415 88.7737 401.067 88.3222C402.482 87.3207 403.809 86.1999 405.033 84.972C407.786 82.0713 410.371 79.0164 412.777 75.8221C414.038 74.1352 415.918 73.0185 418.003 72.7177C420.088 72.4169 422.207 72.9566 423.894 74.2181C425.581 75.4797 426.698 77.3597 426.998 79.4446C427.299 81.5295 426.76 83.6485 425.498 85.3354V85.3354Z" fill="white"/>
<path d="M367.72 75.0006L369.569 78.1611C369.569 78.1611 370.991 82.3015 373.82 83.06L381.484 80.5948L381.105 79.9469C380.109 78.4456 380.22 75.5695 380.567 73.1674C380.915 70.7654 379.667 70.6706 378.75 71.2711C378.089 72.0188 377.627 72.921 377.407 73.8944C377.035 73.3727 376.623 72.8813 376.174 72.4247L373.835 70.0859C373.349 69.6007 372.695 69.3191 372.008 69.2986C371.321 69.278 370.652 69.52 370.137 69.9753L368.21 71.603C367.747 72.0249 367.445 72.5943 367.356 73.214C367.266 73.8337 367.395 74.4652 367.72 75.0006V75.0006Z" fill="#407BFF"/>
<path opacity="0.7" d="M367.72 75.0006L369.569 78.1611C369.569 78.1611 370.991 82.3015 373.82 83.06L381.484 80.5948L381.105 79.9469C380.109 78.4456 380.22 75.5695 380.567 73.1674C380.915 70.7654 379.667 70.6706 378.75 71.2711C378.089 72.0188 377.627 72.921 377.407 73.8944C377.035 73.3727 376.623 72.8813 376.174 72.4247L373.835 70.0859C373.349 69.6007 372.695 69.3191 372.008 69.2986C371.321 69.278 370.652 69.52 370.137 69.9753L368.21 71.603C367.747 72.0249 367.445 72.5943 367.356 73.214C367.266 73.8337 367.395 74.4652 367.72 75.0006V75.0006Z" fill="white"/>
<path d="M439.445 63.6378C430.918 65.8859 422.752 69.3281 415.188 73.8623C414.011 74.5986 413.087 75.678 412.542 76.955C411.997 78.2321 411.856 79.6456 412.138 81.0052C415.172 95.9231 422.11 115.914 429.6 128.619L464.604 114.175C464.856 108.012 456.37 88.0691 447.726 68.7896C446.114 65.3287 443.143 62.7371 439.445 63.6378Z" fill="#407BFF"/>
<path opacity="0.8" d="M439.445 63.6378C430.918 65.8859 422.752 69.3281 415.188 73.8623C414.011 74.5986 413.087 75.678 412.542 76.955C411.997 78.2321 411.856 79.6456 412.138 81.0052C415.172 95.9231 422.11 115.914 429.6 128.619L464.604 114.175C464.856 108.012 456.37 88.0691 447.726 68.7896C446.114 65.3287 443.143 62.7371 439.445 63.6378Z" fill="white"/>
<path opacity="0.3" d="M453.07 81.0056L446.133 78.6826C447.713 82.744 453.307 87.8799 457.195 90.8982C455.946 87.7377 454.54 84.4191 453.07 81.0056Z" fill="#407BFF"/>
<path d="M437.145 47.9933C434.268 42.4939 428.026 39.7126 420.536 40.3447C414.215 40.8662 408.605 47.3296 409.268 50.8062C409.932 54.2828 415.258 55.7683 416.222 56.9851L411.844 60.1457C411.326 60.52 410.888 60.9953 410.558 61.5431C410.228 62.0909 410.012 62.6997 409.924 63.3331C409.835 63.9665 409.876 64.6112 410.043 65.2285C410.21 65.8458 410.5 66.4229 410.896 66.9251C412.745 69.2639 415.163 71.666 416.585 73.4359C428.69 73.1198 437.65 68.5054 440.874 64.049C439.72 58.4706 440.021 53.4611 437.145 47.9933Z" fill="#407BFF"/>
<path opacity="0.8" d="M437.145 47.9933C434.268 42.4939 428.026 39.7126 420.536 40.3447C414.215 40.8662 408.605 47.3296 409.268 50.8062C409.932 54.2828 415.258 55.7683 416.222 56.9851L411.844 60.1457C411.326 60.52 410.888 60.9953 410.558 61.5431C410.228 62.0909 410.012 62.6997 409.924 63.3331C409.835 63.9665 409.876 64.6112 410.043 65.2285C410.21 65.8458 410.5 66.4229 410.896 66.9251C412.745 69.2639 415.163 71.666 416.585 73.4359C428.69 73.1198 437.65 68.5054 440.874 64.049C439.72 58.4706 440.021 53.4611 437.145 47.9933Z" fill="white"/>
<path d="M431.217 51.3903C432.084 53.5965 432.277 56.0103 431.771 58.3261C431.265 60.6418 430.084 62.7555 428.376 64.3995C426.669 66.0435 424.512 67.144 422.179 67.5616C419.845 67.9791 417.441 67.6951 415.269 66.7454C413.097 65.7956 411.256 64.2229 409.978 62.2263C408.701 60.2297 408.045 57.8989 408.092 55.5291C408.14 53.1592 408.89 50.8568 410.247 48.9132C411.604 46.9697 413.507 45.4724 415.715 44.6109C417.178 44.0379 418.739 43.7588 420.31 43.7894C421.881 43.82 423.431 44.1598 424.871 44.7893C426.31 45.4189 427.612 46.3259 428.701 47.4585C429.79 48.5911 430.645 49.9272 431.217 51.3903V51.3903Z" fill="#263238"/>
<path d="M533.807 193.806C533.633 188.623 533.412 189.066 533.27 184.704C533.175 182.017 533.159 179.031 533.143 176.455C533.135 175.232 532.706 174.05 531.93 173.106C531.153 172.162 530.075 171.515 528.877 171.271C526.775 170.845 524.673 170.45 522.555 169.991C519.837 169.423 517.135 168.79 514.449 168.016C512.378 167.416 510.324 166.736 508.285 166.009C506.247 165.282 503.955 164.429 501.822 163.449C499.341 162.374 496.876 161.237 494.426 160.067C491.708 158.75 489.001 157.407 486.304 156.038C475.937 138.828 475.668 127.482 464.606 114.176L440.586 125.001C440.586 125.001 458.19 156.243 470.185 169.486C477.091 177.103 487.915 180.548 497.571 183.029C504.524 184.83 511.588 186.189 518.668 187.501C521.418 188.007 524.404 188.212 526.775 189.856C528.533 191.194 529.732 193.136 530.141 195.308C530.263 195.745 530.364 196.188 530.441 196.635C530.694 197.947 533.918 196.951 533.807 193.806Z" fill="#407BFF"/>
<path opacity="0.8" d="M533.807 193.806C533.633 188.623 533.412 189.066 533.27 184.704C533.175 182.017 533.159 179.031 533.143 176.455C533.135 175.232 532.706 174.05 531.93 173.106C531.153 172.162 530.075 171.515 528.877 171.271C526.775 170.845 524.673 170.45 522.555 169.991C519.837 169.423 517.135 168.79 514.449 168.016C512.378 167.416 510.324 166.736 508.285 166.009C506.247 165.282 503.955 164.429 501.822 163.449C499.341 162.374 496.876 161.237 494.426 160.067C491.708 158.75 489.001 157.407 486.304 156.038C475.937 138.828 475.668 127.482 464.606 114.176L440.586 125.001C440.586 125.001 458.19 156.243 470.185 169.486C477.091 177.103 487.915 180.548 497.571 183.029C504.524 184.83 511.588 186.189 518.668 187.501C521.418 188.007 524.404 188.212 526.775 189.856C528.533 191.194 529.732 193.136 530.141 195.308C530.263 195.745 530.364 196.188 530.441 196.635C530.694 197.947 533.918 196.951 533.807 193.806Z" fill="white"/>
<path opacity="0.3" d="M521.672 169.801L518.812 169.09C518.891 174.542 516.331 183.977 515.383 186.821L518.385 187.406C520.357 181.736 521.465 175.801 521.672 169.801V169.801Z" fill="#407BFF"/>
<path opacity="0.3" d="M533.143 176.455C533.135 175.232 532.706 174.05 531.929 173.106C531.152 172.162 530.074 171.514 528.876 171.271C528.386 171.161 527.865 171.05 527.375 170.971C527.623 172.77 528.543 174.407 529.951 175.554C530.85 176.392 531.932 177.009 533.111 177.356C533.143 176.992 533.143 176.739 533.143 176.455Z" fill="#407BFF"/>
<path d="M428.972 51.5015C429.62 53.8877 426.934 56.4162 424.784 54.346C422.797 52.2027 420.618 50.2455 418.274 48.4989C416.077 47.1241 419.016 44.7379 422.461 45.6544C423.942 46.0232 425.309 46.7489 426.444 47.7682C427.579 48.7875 428.447 50.0693 428.972 51.5015V51.5015Z" fill="white"/>
<path d="M429.161 127.861C428.039 128.271 430.078 130.152 430.078 130.152C430.078 130.152 452.202 122.598 465.618 114.807C465.657 114.337 465.581 113.864 465.396 113.429C465.212 112.994 464.925 112.61 464.56 112.311C453.058 118.147 441.24 123.339 429.161 127.861V127.861Z" fill="#407BFF"/>
<path opacity="0.5" d="M429.161 127.861C428.039 128.271 430.078 130.152 430.078 130.152C430.078 130.152 452.202 122.598 465.618 114.807C465.657 114.337 465.581 113.864 465.396 113.429C465.212 112.994 464.925 112.61 464.56 112.311C453.058 118.147 441.24 123.339 429.161 127.861V127.861Z" fill="white"/>
<path d="M445.437 62.5956C449.783 64.7922 453.892 67.1311 457.985 69.7069C460.023 70.9869 462.062 72.3144 464.069 73.7366C466.076 75.1589 468.067 76.597 470.058 78.2563L470.817 78.8726L471.749 79.7101C472.307 80.2328 472.834 80.7868 473.329 81.3694C473.835 81.9225 474.262 82.4598 474.672 82.9497C475.083 83.4396 475.51 84.0243 475.873 84.53C477.351 86.5616 478.717 88.6717 479.966 90.8511C482.418 95.0758 484.532 99.4881 486.288 104.047C486.605 104.906 486.617 105.85 486.32 106.717C486.023 107.584 485.436 108.322 484.658 108.807C483.88 109.292 482.958 109.493 482.049 109.377C481.139 109.262 480.298 108.835 479.666 108.171L479.587 108.092C476.427 104.726 473.361 101.186 470.295 97.8834C467.752 94.803 464.814 92.0718 461.556 89.7607C457.969 87.5325 453.971 85.3043 450.004 83.1077L438.041 76.4863C436.189 75.5056 434.802 73.8291 434.185 71.8257C433.569 69.8223 433.774 67.6561 434.754 65.8036C435.735 63.9511 437.412 62.5641 439.415 61.9476C441.418 61.3312 443.585 61.5359 445.437 62.5166V62.5956Z" fill="#407BFF"/>
<path opacity="0.8" d="M445.437 62.5956C449.783 64.7922 453.892 67.1311 457.985 69.7069C460.023 70.9869 462.062 72.3144 464.069 73.7366C466.076 75.1589 468.067 76.597 470.058 78.2563L470.817 78.8726L471.749 79.7101C472.307 80.2328 472.834 80.7868 473.329 81.3694C473.835 81.9225 474.262 82.4598 474.672 82.9497C475.083 83.4396 475.51 84.0243 475.873 84.53C477.351 86.5616 478.717 88.6717 479.966 90.8511C482.418 95.0758 484.532 99.4881 486.288 104.047C486.605 104.906 486.617 105.85 486.32 106.717C486.023 107.584 485.436 108.322 484.658 108.807C483.88 109.292 482.958 109.493 482.049 109.377C481.139 109.262 480.298 108.835 479.666 108.171L479.587 108.092C476.427 104.726 473.361 101.186 470.295 97.8834C467.752 94.803 464.814 92.0718 461.556 89.7607C457.969 87.5325 453.971 85.3043 450.004 83.1077L438.041 76.4863C436.189 75.5056 434.802 73.8291 434.185 71.8257C433.569 69.8223 433.774 67.6561 434.754 65.8036C435.735 63.9511 437.412 62.5641 439.415 61.9476C441.418 61.3312 443.585 61.5359 445.437 62.5166V62.5956Z" fill="white"/>
<path d="M490.115 111.869L488.771 108.503C488.771 108.503 488.029 104.204 485.342 103.003L477.441 104.252L477.725 104.947C478.468 106.527 477.915 109.404 477.188 111.727C476.461 114.05 477.694 114.318 478.689 113.876C479.274 113.623 479.811 112.596 480.427 111.505C480.717 112.058 481.049 112.586 481.423 113.086L483.367 115.756C483.77 116.313 484.372 116.694 485.049 116.821C485.725 116.947 486.424 116.809 487.001 116.436L489.135 115.077C489.636 114.731 490.005 114.225 490.183 113.643C490.36 113.061 490.337 112.436 490.115 111.869Z" fill="#407BFF"/>
<path opacity="0.8" d="M490.115 111.869L488.771 108.503C488.771 108.503 488.029 104.204 485.342 103.003L477.441 104.252L477.725 104.947C478.468 106.527 477.915 109.404 477.188 111.727C476.461 114.05 477.694 114.318 478.689 113.876C479.274 113.623 479.811 112.596 480.427 111.505C480.717 112.058 481.049 112.586 481.423 113.086L483.367 115.756C483.77 116.313 484.372 116.694 485.049 116.821C485.725 116.947 486.424 116.809 487.001 116.436L489.135 115.077C489.636 114.731 490.005 114.225 490.183 113.643C490.36 113.061 490.337 112.436 490.115 111.869Z" fill="white"/>
<path opacity="0.3" d="M438.752 80.7529L436.824 80.911L425.004 109.498C425.651 109.545 426.301 109.492 426.932 109.34C426.932 109.34 442.355 103.588 447.017 101.439C443.873 94.9755 438.752 80.7529 438.752 80.7529Z" fill="#407BFF"/>
<path d="M417.195 88.259C418.634 95.7275 421.305 102.905 425.097 109.498C430.865 107.507 440.52 103.746 445.182 101.597C442.073 94.8322 439.314 87.9119 436.917 80.8633C431.845 81.2425 421.004 85.3355 417.195 88.259Z" fill="white"/>
<path opacity="0.3" d="M428.907 94.4379C428.677 95.2105 428.223 95.8976 427.602 96.4123C426.982 96.927 426.223 97.2462 425.421 97.3296C424.619 97.4131 423.811 97.2569 423.098 96.881C422.384 96.505 421.799 95.9261 421.415 95.2174C421.03 94.5086 420.865 93.702 420.939 92.8992C421.013 92.0965 421.324 91.3338 421.831 90.7075C422.339 90.0812 423.021 89.6194 423.791 89.3805C424.561 89.1415 425.384 89.1362 426.157 89.3651C426.671 89.5173 427.15 89.7694 427.566 90.1067C427.982 90.4441 428.328 90.8603 428.583 91.3315C428.839 91.8026 428.999 92.3195 429.054 92.8525C429.11 93.3855 429.06 93.9242 428.907 94.4379V94.4379Z" fill="#407BFF"/>
<path opacity="0.6" d="M431.93 89.0015C431.853 89.2557 431.703 89.4815 431.498 89.6502C431.293 89.819 431.042 89.9233 430.778 89.9498C430.514 89.9763 430.248 89.9239 430.013 89.7993C429.779 89.6746 429.587 89.4833 429.461 89.2494C429.335 89.0156 429.282 88.7497 429.307 88.4854C429.332 88.221 429.435 87.9701 429.603 87.7644C429.771 87.5586 429.996 87.4071 430.25 87.3292C430.504 87.2513 430.775 87.2503 431.029 87.3264C431.369 87.4323 431.653 87.667 431.821 87.9802C431.99 88.2933 432.029 88.66 431.93 89.0015Z" fill="#407BFF"/>
<path opacity="0.6" d="M435.45 87.6271C435.324 87.9366 435.086 88.1879 434.784 88.3318C434.482 88.4756 434.138 88.5017 433.818 88.4048C433.498 88.308 433.225 88.0953 433.054 87.8082C432.882 87.5212 432.824 87.1805 432.89 86.8527C432.927 86.6694 433.002 86.4958 433.11 86.3432C433.218 86.1905 433.357 86.0621 433.517 85.9661C433.678 85.8702 433.857 85.8088 434.042 85.7859C434.228 85.7631 434.416 85.7793 434.595 85.8334C434.774 85.8876 434.94 85.9785 435.082 86.1004C435.224 86.2223 435.339 86.3725 435.419 86.5413C435.5 86.7102 435.544 86.894 435.549 87.0809C435.555 87.2679 435.521 87.4539 435.45 87.6271V87.6271Z" fill="#407BFF"/>
<path opacity="0.5" d="M440.424 99.9215L425.807 105.705L424.922 102.829L439.54 97.0454L440.424 99.9215Z" fill="#407BFF"/>
<path opacity="0.2" d="M359.767 319.565C359.744 328.766 358.866 337.944 357.144 346.983C355.279 355.106 352.382 361.047 348.453 364.808C346.622 366.625 344.449 368.06 342.059 369.029C339.668 369.997 337.109 370.48 334.53 370.45C326.408 370.45 320.208 366.02 315.93 357.16C315.179 355.568 314.54 353.926 314.018 352.245C304.985 360.004 296.573 368.458 288.86 377.53L280.469 387.422C284.985 391.999 290.195 395.834 295.908 398.785C305.759 403.873 318.675 406.423 334.657 406.433C337.47 406.433 340.188 406.354 342.827 406.196C352.502 391.88 360.508 376.504 366.689 360.368L390.156 299.179L359.767 319.565Z" fill="black"/>
<path d="M148.219 402.972L175.89 430.627L253.324 357.666C226.68 347.552 174.72 376.487 148.219 402.972Z" fill="#263238"/>
<path d="M244.678 499.37L217.023 471.715L289.969 394.281C300.099 420.972 271.18 472.932 244.678 499.37Z" fill="#263238"/>
<path d="M350.512 325.143L380.695 266.973L322.525 297.093C303.833 306.78 286.575 319.012 271.245 333.44L172.098 426.851L220.818 475.571L314.165 376.408C328.591 361.081 340.822 343.828 350.512 325.143V325.143Z" fill="#407BFF"/>
<path opacity="0.6" d="M350.512 325.143L380.695 266.973L322.525 297.093C303.833 306.78 286.575 319.012 271.245 333.44L172.098 426.851L220.818 475.571L314.165 376.408C328.591 361.081 340.822 343.828 350.512 325.143V325.143Z" fill="white"/>
<path d="M288.565 379.474C299.824 379.474 308.951 370.347 308.951 359.088C308.951 347.83 299.824 338.703 288.565 338.703C277.307 338.703 268.18 347.83 268.18 359.088C268.18 370.347 277.307 379.474 288.565 379.474Z" fill="white"/>
<path d="M288.562 372.188C295.797 372.188 301.662 366.323 301.662 359.088C301.662 351.853 295.797 345.987 288.562 345.987C281.326 345.987 275.461 351.853 275.461 359.088C275.461 366.323 281.326 372.188 288.562 372.188Z" fill="#407BFF"/>
<path opacity="0.3" d="M237.283 458.061L189.59 410.368L228.639 373.611L274.04 419.012L237.283 458.061Z" fill="#407BFF"/>
<path d="M159.025 446.684C123.264 449.591 111.459 472.505 107.461 502.847C105.406 518.35 104.49 534.042 91.4683 543.113C90.6845 543.645 90.0947 544.417 89.7874 545.314C89.4801 546.21 89.4719 547.182 89.764 548.083C90.0562 548.984 90.6329 549.767 91.4075 550.312C92.1821 550.858 93.1129 551.137 94.0599 551.109C142.006 549.608 164.367 526.125 167.164 516.343C166.435 521.471 165.115 526.499 163.229 531.324C162.884 532.175 162.817 533.113 163.036 534.004C163.256 534.896 163.751 535.696 164.451 536.289C165.152 536.883 166.022 537.241 166.937 537.311C167.853 537.381 168.767 537.161 169.55 536.681C183.014 528.242 199.892 512.724 201.014 487.566C191.074 473.533 159.025 446.684 159.025 446.684Z" fill="#407BFF"/>
<path opacity="0.2" d="M159.025 446.684C123.264 449.591 111.459 472.505 107.461 502.847C105.406 518.35 104.49 534.042 91.4683 543.113C90.6845 543.645 90.0947 544.417 89.7874 545.314C89.4801 546.21 89.4719 547.182 89.764 548.083C90.0562 548.984 90.6329 549.767 91.4075 550.312C92.1821 550.858 93.1129 551.137 94.0599 551.109C142.006 549.608 164.367 526.125 167.164 516.343C166.435 521.471 165.115 526.499 163.229 531.324C162.884 532.175 162.817 533.113 163.036 534.004C163.256 534.896 163.751 535.696 164.451 536.289C165.152 536.883 166.022 537.241 166.937 537.311C167.853 537.381 168.767 537.161 169.55 536.681C183.014 528.242 199.892 512.724 201.014 487.566C191.074 473.533 159.025 446.684 159.025 446.684Z" fill="white"/>
<path d="M206.515 498.343L149.324 441.137L179.792 434.547L213.105 467.859L206.515 498.343Z" fill="#407BFF"/>
</svg>
